# xmcd
#
# Track frame offsets:
#	150
#	53762
#	71444
#	86938
#	107022
#	121597
#	141834
#	156284
#	174930
#	194191
#	216053
#
# Disc length: 3174 seconds
#
# Revision: 1
# Processed by: cddbd v1.4PL0 Copyright (c) Steve Scherf et al.
# Submitted via: audiograbber 1.82.02
#
DISCID=9b0c640b
DTITLE=Florent Pagny - Ailleur Land
DYEAR=2003
DGENRE=Blues
TTITLE0=Je trace
TTITLE1=Ailleur land
TTITLE2=Ma liberté de pensé
TTITLE3=Je parle même pas d'amour
TTITLE4=La folie d'un ange
TTITLE5=Le feu à la peau
TTITLE6=Sauf toi
TTITLE7=Demander à mon cheval
TTITLE8=Mon amour oublie que je t'aime
TTITLE9=Guérir
TTITLE10=Sur mesure
EXTD=
EXTT0=
EXTT1=
EXTT2=
EXTT3=
EXTT4=
EXTT5=
EXTT6=
EXTT7=
EXTT8=
EXTT9=
EXTT10=
PLAYORDER=
